<svg width="20" height="20" viewBox="0 0 20 20" fill="none" xmlns="http://www.w3.org/2000/svg">
<path d="M19.9997 17.5033C19.9997 17.5033 17.859 19.8286 16.1623 19.9868C13.8898 20.1978 9.7579 17.789 5.98208 14.0176C2.20626 10.2418 -0.19814 6.10989 0.0128486 3.83736C0.166695 2.14066 2.49637 0 2.49637 0L7.3623 4.86593L5.41944 6.80879L13.1865 14.5758L15.1293 12.633L19.9997 17.5033Z" fill="black"/>
<path d="M11.1162 1.85054V0.53186C15.7228 0.53186 19.4679 4.27692 19.4679 8.88351H18.1492C18.1492 5.00659 14.9931 1.85054 11.1162 1.85054Z" fill="black"/>
<path d="M11.1162 4.92745V3.60876C14.0261 3.60876 16.3909 5.9736 16.3909 8.88349H15.0723C15.0723 6.70327 13.2964 4.92745 11.1162 4.92745Z" fill="black"/>
</svg>
