<svg width="20" height="20" viewBox="0 0 20 20" fill="none" xmlns="http://www.w3.org/2000/svg">
<path d="M2.92969 0H17.0703C18.6875 0 20 1.3125 20 2.92969V17.0703C20 18.6875 18.6875 20 17.0703 20H2.92969C1.3125 20 0 18.6875 0 17.0703V2.92969C0 1.3125 1.3125 0 2.92969 0ZM9.96094 15.2344C12.8672 15.2344 15.2344 12.8672 15.2344 9.96094C15.2344 7.05469 12.8672 4.6875 9.96094 4.6875C7.05469 4.6875 4.6875 7.05469 4.6875 9.96094C4.6875 12.8672 7.05469 15.2344 9.96094 15.2344ZM4.10156 5.85938C5.07031 5.85938 5.85938 5.07031 5.85938 4.10156C5.85938 3.13281 5.07031 2.34375 4.10156 2.34375C3.13281 2.34375 2.34375 3.13281 2.34375 4.10156C2.34375 5.07031 3.13281 5.85938 4.10156 5.85938Z" fill="black"/>
</svg>
